<svg xmlns="http://www.w3.org/2000/svg" viewBox="0 0 200 200" fill="#34D399"><g transform="translate(100 100) scale(0.8276) translate(-100.06 -100.30)"><path xmlns="http://www.w3.org/2000/svg" d="M 150.711 50.054 C 122.653 50.175 100 72.472 100 100 C 100 72.472 77.329 50.133 49.253 50.019 C 77.329 49.963 100 27.844 100 0.637 C 100 27.844 122.652 50.005 150.711 50.054 Z M 99.839 100 C 71.746 100.086 49.165 122.353 49.27 149.807 C 49.165 122.353 26.399 100.085 -1.432 100 C 26.397 99.915 48.957 77.556 49.093 50.019 C 48.957 77.556 71.745 99.915 99.839 100 Z M 201.554 100 C 173.674 100.086 150.848 122.359 150.695 149.772 C 150.848 122.359 128.272 100.085 100.161 100 C 128.273 99.915 151.056 77.55 150.872 50.053 C 151.056 77.55 173.676 99.916 201.554 100 Z M 150.536 149.774 C 122.682 150.062 100 172.517 100 199.969 C 100 172.517 77.3 150.102 49.429 149.808 C 77.299 149.932 100 127.618 100 100 C 100 127.618 122.682 149.891 150.536 149.774 Z" fill="#34D399"/></g></svg>